<?xml version="1.0" encoding="UTF-8"?>
<svg id="Layer_1" data-name="Layer 1" xmlns="http://www.w3.org/2000/svg" viewBox="0 0 1878.69 131.89">
  <defs>
    <style>
      .cls-1 {
        fill: #14abd4;
      }
    </style>
  </defs>
  <g>
    <path class="cls-1" d="M38.95,129.71c-13.47,0-23.33-3.44-29.58-10.31C3.12,112.52,0,101.96,0,87.7v-45.25c0-14.26,3.12-24.82,9.37-31.7C15.62,3.87,25.48.43,38.95.43h116.1v21.2H43.73c-7.26,0-12.54,1.91-15.85,5.73-3.31,3.82-4.96,9.61-4.96,17.38v40.67c0,7.64,1.65,13.4,4.96,17.28,3.31,3.88,8.59,5.82,15.85,5.82h111.32v21.2H38.95Z"/>
    <path class="cls-1" d="M213.24,129.71c-13.48,0-23.36-3.44-29.66-10.31s-9.44-17.44-9.44-31.7v-45.25c0-14.26,3.14-24.82,9.44-31.7,6.3-6.87,16.18-10.31,29.66-10.31h88.5c13.48,0,23.33,3.44,29.56,10.31,6.23,6.87,9.35,17.44,9.35,31.7v45.25c0,14.26-3.12,24.82-9.35,31.7-6.23,6.87-16.08,10.31-29.56,10.31h-88.5ZM317.74,44.73c0-7.76-1.63-13.56-4.88-17.38-3.25-3.82-8.51-5.73-15.78-5.73h-79.18c-7.27,0-12.56,1.91-15.88,5.73-3.31,3.82-4.97,9.61-4.97,17.38v40.67c0,7.64,1.66,13.4,4.97,17.28,3.31,3.88,8.61,5.82,15.88,5.82h79.18c7.27,0,12.52-1.94,15.78-5.82,3.25-3.88,4.88-9.64,4.88-17.28v-40.67Z"/>
    <path class="cls-1" d="M501.62,129.71V44.73c0-15.4-6.89-23.1-20.66-23.1h-96.78v108.08h-22.91V.43h124.5c13.37,0,23.17,3.47,29.41,10.41,6.24,6.94,9.36,17.47,9.36,31.6v87.26h-22.91Z"/>
    <path class="cls-1" d="M686.07,129.71V44.73c0-15.4-6.89-23.1-20.66-23.1h-96.78v108.08h-22.91V.43h124.5c13.37,0,23.17,3.47,29.41,10.41,6.24,6.94,9.36,17.47,9.36,31.6v87.26h-22.91Z"/>
  </g>
  <g>
    <path class="cls-1" d="M1329.22,67.68v-14.16h-23.24v76.19h23.24v-41.53s0-.01,0-.02v-3.44c0-.12.03-.23.04-.34v-16.29s0-.03,0-.04c-.01-.09-.03-.19-.04-.28,0-.02,0-.05,0-.07Z"/>
    <polygon class="cls-1" points="1305.98 2.52 1305.98 24.07 1329.22 24.07 1329.22 24.01 1475.02 24.01 1475.02 2.52 1305.98 2.52"/>
    <rect class="cls-1" x="1329.01" y="53.54" width="145.23" height="21.3"/>
  </g>
  <path class="cls-1" d="M1488.65,129.95V.67h22.91v129.27h-22.91Z"/>
  <g>
    <polygon class="cls-1" points="1527.33 2.04 1527.33 23.59 1550.56 23.59 1550.56 23.53 1696.37 23.53 1696.37 2.04 1527.33 2.04"/>
    <polygon class="cls-1" points="1527.33 56.69 1527.33 78.25 1550.56 78.25 1550.56 78.19 1696.37 78.19 1696.37 56.69 1527.33 56.69"/>
    <polygon class="cls-1" points="1527.33 108.75 1527.33 130.3 1550.56 130.3 1550.56 130.24 1696.37 130.24 1696.37 108.75 1527.33 108.75"/>
  </g>
  <path class="cls-1" d="M1712.19,130.56V1.3h123.02c14.49,0,25.36,4.17,32.61,12.51,7.25,8.34,10.87,19.57,10.87,33.7v38c0,13.75-3.59,24.7-10.78,32.84-7.18,8.15-18.09,12.22-32.71,12.22h-123.02ZM1855.78,54.95c0-4.71-.38-9.07-1.15-13.08s-2.1-7.45-4.02-10.31c-1.91-2.86-4.46-5.09-7.65-6.68-3.19-1.59-7.2-2.39-12.05-2.39h-95.81v86.88h89.12c10.45,0,18.33-2.01,23.62-6.02,5.29-4.01,7.94-10.6,7.94-19.76v-28.64Z"/>
  <g>
    <path class="cls-1" d="M956.88,129.27c-13.47,0-23.33-3.44-29.58-10.31-6.25-6.88-9.37-17.44-9.37-31.7v-45.26c0-14.26,3.12-24.82,9.37-31.7,6.25-6.87,16.11-10.31,29.58-10.31h116.1v21.2h-111.32c-7.26,0-12.54,1.91-15.85,5.73-3.31,3.82-4.96,9.61-4.96,17.38v40.67c0,7.64,1.65,13.4,4.96,17.28,3.31,3.88,8.59,5.82,15.85,5.82h111.32v21.2h-116.1Z"/>
    <path class="cls-1" d="M1156.61,129.27V21.2h-69.31V0h161.73v21.2h-69.5v108.08h-22.91Z"/>
    <path class="cls-1" d="M1264.31,129.27V0h22.91v129.27h-22.91Z"/>
  </g>
  <g>
    <polygon class="cls-1" points="730.91 3.63 730.91 25.18 754.15 25.18 754.15 25.12 899.95 25.12 899.95 3.63 730.91 3.63"/>
    <polygon class="cls-1" points="730.91 58.29 730.91 79.84 754.15 79.84 754.15 79.78 899.95 79.78 899.95 58.29 730.91 58.29"/>
    <polygon class="cls-1" points="730.91 110.34 730.91 131.89 754.15 131.89 754.15 131.84 899.95 131.84 899.95 110.34 730.91 110.34"/>
  </g>
</svg>